<?xml version="1.0" encoding="UTF-8" standalone="no"?>
<!DOCTYPE svg PUBLIC "-//W3C//DTD SVG 1.1//EN" "http://www.w3.org/Graphics/SVG/1.1/DTD/svg11.dtd">
<svg xmlns="http://www.w3.org/2000/svg" version="1.1" viewBox="0.00 0.00 1296.00 1296.00">
<g stroke-width="2.00" fill="none" stroke-linecap="butt">
<path stroke="#2c417a" vector-effect="non-scaling-stroke" d="
  M 264.52 490.05
  L 264.53 109.51
  Q 264.53 108.00 263.01 108.00
  L 139.89 108.00
  A 0.86 0.85 -90.0 0 0 139.04 108.86
  L 139.03 1187.52
  A 0.49 0.48 0.0 0 0 139.52 1188.00
  L 263.51 1188.00
  Q 264.52 1188.00 264.52 1186.99
  L 264.53 806.77
  Q 264.53 805.77 265.24 806.47
  L 645.98 1187.23
  A 2.81 2.81 0.0 0 0 649.96 1187.23
  L 1186.97 650.21
  Q 1188.93 648.25 1186.97 646.28
  L 649.48 108.60
  Q 648.08 107.20 646.68 108.60
  L 265.03 490.26
  A 0.30 0.30 0.0 0 1 264.52 490.05"
/>
<path stroke="#97833d" vector-effect="non-scaling-stroke" d="
  M 679.12 617.90
  L 649.16 647.84
  A 0.22 0.21 45.9 0 0 649.16 648.15
  L 679.29 678.26"
/>
<path stroke="#1f326d" vector-effect="non-scaling-stroke" d="
  M 679.29 678.26
  Q 678.96 678.34 679.50 679.42"
/>
<path stroke="#2c5579" vector-effect="non-scaling-stroke" d="
  M 679.50 679.42
  L 679.20 998.09
  Q 679.19 1000.75 681.07 998.87
  L 973.34 706.61
  A 2.67 2.67 0.0 0 1 977.12 706.61
  L 1052.05 781.54
  A 0.35 0.35 0.0 0 0 1052.55 781.54
  L 1185.68 648.41
  Q 1186.12 647.97 1185.68 647.53
  L 1052.72 514.58
  A 0.59 0.58 44.7 0 0 1051.89 514.58
  L 976.85 589.61
  A 1.86 1.85 44.9 0 1 974.22 589.61
  Q 908.18 523.57 842.04 457.21
  Q 840.92 456.09 840.29 456.33"
/>
<path stroke="#1f326d" vector-effect="non-scaling-stroke" d="
  M 840.29 456.33
  L 680.63 296.70
  A 0.89 0.89 0.0 0 0 679.11 297.33
  L 679.12 617.90"
/>
<path stroke="#1c576c" vector-effect="non-scaling-stroke" d="
  M 840.29 456.33
  L 783.70 512.94
  A 0.45 0.45 0.0 0 0 783.70 513.57
  L 916.83 646.70
  A 2.34 2.33 -45.1 0 1 916.83 650.01
  Q 850.90 715.98 784.19 782.64
  Q 782.74 784.09 781.29 782.64
  Q 731.54 732.90 680.91 682.24
  C 680.05 681.38 679.79 680.54 679.50 679.42"
/>
<path stroke="#878630" vector-effect="non-scaling-stroke" d="
  M 679.29 678.26
  L 679.12 617.90"
/>
<path stroke="#97833d" vector-effect="non-scaling-stroke" d="
  M 615.68 998.96
  A 0.32 0.32 0.0 0 0 616.22 998.74
  L 616.22 297.30
  A 0.32 0.32 0.0 0 0 615.68 297.08
  L 264.96 647.79
  A 0.32 0.32 0.0 0 0 264.96 648.25
  L 615.68 998.96"
/>
<path stroke="#94a93c" vector-effect="non-scaling-stroke" d="
  M 919.49 647.72
  A 0.24 0.24 0.0 0 1 919.35 647.79
  L 918.82 647.86
  A 0.24 0.24 0.0 0 0 918.68 648.27
  L 975.02 704.65
  A 0.24 0.24 0.0 0 0 975.36 704.65
  L 1031.83 648.18
  A 0.24 0.24 0.0 0 0 1031.83 647.84
  L 975.78 591.75
  A 0.24 0.24 0.0 0 0 975.44 591.75
  L 919.49 647.72"
/>
</g>
<path fill="#28527a" d="
  M 0.00 0.00
  L 1296.00 0.00
  L 1296.00 1296.00
  L 0.00 1296.00
  L 0.00 0.00
  Z
  M 264.52 490.05
  L 264.53 109.51
  Q 264.53 108.00 263.01 108.00
  L 139.89 108.00
  A 0.86 0.85 -90.0 0 0 139.04 108.86
  L 139.03 1187.52
  A 0.49 0.48 0.0 0 0 139.52 1188.00
  L 263.51 1188.00
  Q 264.52 1188.00 264.52 1186.99
  L 264.53 806.77
  Q 264.53 805.77 265.24 806.47
  L 645.98 1187.23
  A 2.81 2.81 0.0 0 0 649.96 1187.23
  L 1186.97 650.21
  Q 1188.93 648.25 1186.97 646.28
  L 649.48 108.60
  Q 648.08 107.20 646.68 108.60
  L 265.03 490.26
  A 0.30 0.30 0.0 0 1 264.52 490.05
  Z"
/>
<path fill="#2f2f7a" d="
  M 264.52 490.05
  A 0.30 0.30 0.0 0 0 265.03 490.26
  L 646.68 108.60
  Q 648.08 107.20 649.48 108.60
  L 1186.97 646.28
  Q 1188.93 648.25 1186.97 650.21
  L 649.96 1187.23
  A 2.81 2.81 0.0 0 1 645.98 1187.23
  L 265.24 806.47
  Q 264.53 805.77 264.53 806.77
  L 264.52 1186.99
  Q 264.52 1188.00 263.51 1188.00
  L 139.52 1188.00
  A 0.49 0.48 0.0 0 1 139.03 1187.52
  L 139.04 108.86
  A 0.86 0.85 -90.0 0 1 139.89 108.00
  L 263.01 108.00
  Q 264.53 108.00 264.53 109.51
  L 264.52 490.05
  Z
  M 679.12 617.90
  L 649.16 647.84
  A 0.22 0.21 45.9 0 0 649.16 648.15
  L 679.29 678.26
  Q 678.96 678.34 679.50 679.42
  L 679.20 998.09
  Q 679.19 1000.75 681.07 998.87
  L 973.34 706.61
  A 2.67 2.67 0.0 0 1 977.12 706.61
  L 1052.05 781.54
  A 0.35 0.35 0.0 0 0 1052.55 781.54
  L 1185.68 648.41
  Q 1186.12 647.97 1185.68 647.53
  L 1052.72 514.58
  A 0.59 0.58 44.7 0 0 1051.89 514.58
  L 976.85 589.61
  A 1.86 1.85 44.9 0 1 974.22 589.61
  Q 908.18 523.57 842.04 457.21
  Q 840.92 456.09 840.29 456.33
  L 680.63 296.70
  A 0.89 0.89 0.0 0 0 679.11 297.33
  L 679.12 617.90
  Z
  M 615.68 998.96
  A 0.32 0.32 0.0 0 0 616.22 998.74
  L 616.22 297.30
  A 0.32 0.32 0.0 0 0 615.68 297.08
  L 264.96 647.79
  A 0.32 0.32 0.0 0 0 264.96 648.25
  L 615.68 998.96
  Z"
/>
<path fill="#0f3460" d="
  M 840.29 456.33
  L 783.70 512.94
  A 0.45 0.45 0.0 0 0 783.70 513.57
  L 916.83 646.70
  A 2.34 2.33 -45.1 0 1 916.83 650.01
  Q 850.90 715.98 784.19 782.64
  Q 782.74 784.09 781.29 782.64
  Q 731.54 732.90 680.91 682.24
  C 680.05 681.38 679.79 680.54 679.50 679.42
  Q 678.96 678.34 679.29 678.26
  L 679.12 617.90
  L 679.11 297.33
  A 0.89 0.89 0.0 0 1 680.63 296.70
  L 840.29 456.33
  Z"
/>
<path fill="#ffd700" d="
  M 615.68 998.96
  L 264.96 648.25
  A 0.32 0.32 0.0 0 1 264.96 647.79
  L 615.68 297.08
  A 0.32 0.32 0.0 0 1 616.22 297.30
  L 616.22 998.74
  A 0.32 0.32 0.0 0 1 615.68 998.96
  Z"
/>
<path fill="#287a77" d="
  M 840.29 456.33
  Q 840.92 456.09 842.04 457.21
  Q 908.18 523.57 974.22 589.61
  A 1.86 1.85 44.9 0 0 976.85 589.61
  L 1051.89 514.58
  A 0.59 0.58 44.7 0 1 1052.72 514.58
  L 1185.68 647.53
  Q 1186.12 647.97 1185.68 648.41
  L 1052.55 781.54
  A 0.35 0.35 0.0 0 1 1052.05 781.54
  L 977.12 706.61
  A 2.67 2.67 0.0 0 0 973.34 706.61
  L 681.07 998.87
  Q 679.19 1000.75 679.20 998.09
  L 679.50 679.42
  C 679.79 680.54 680.05 681.38 680.91 682.24
  Q 731.54 732.90 781.29 782.64
  Q 782.74 784.09 784.19 782.64
  Q 850.90 715.98 916.83 650.01
  A 2.34 2.33 -45.1 0 0 916.83 646.70
  L 783.70 513.57
  A 0.45 0.45 0.0 0 1 783.70 512.94
  L 840.29 456.33
  Z
  M 919.49 647.72
  A 0.24 0.24 0.0 0 1 919.35 647.79
  L 918.82 647.86
  A 0.24 0.24 0.0 0 0 918.68 648.27
  L 975.02 704.65
  A 0.24 0.24 0.0 0 0 975.36 704.65
  L 1031.83 648.18
  A 0.24 0.24 0.0 0 0 1031.83 647.84
  L 975.78 591.75
  A 0.24 0.24 0.0 0 0 975.44 591.75
  L 919.49 647.72
  Z"
/>
<path fill="#ffd700" d="
  M 919.49 647.72
  L 975.44 591.75
  A 0.24 0.24 0.0 0 1 975.78 591.75
  L 1031.83 647.84
  A 0.24 0.24 0.0 0 1 1031.83 648.18
  L 975.36 704.65
  A 0.24 0.24 0.0 0 1 975.02 704.65
  L 918.68 648.27
  A 0.24 0.24 0.0 0 1 918.82 647.86
  L 919.35 647.79
  A 0.24 0.24 0.0 0 0 919.49 647.72
  Z"
/>
<path fill="#ffd700" d="
  M 679.12 617.90
  L 679.29 678.26
  L 649.16 648.15
  A 0.22 0.21 45.9 0 1 649.16 647.84
  L 679.12 617.90
  Z"
/>
</svg>
